<svg fill="#a7aaad" xmlns="http://www.w3.org/2000/svg" xml:space="preserve" width="20" height="20" fill-rule="evenodd" clip-rule="evenodd" image-rendering="optimizeQuality" shape-rendering="geometricPrecision" text-rendering="geometricPrecision" viewBox="0 0 160000 160000">
  <path d="M79788 376c43977 0 79627 35651 79627 79628s-35650 79627-79627 79627S160 123981 160 80004 35811 376 79788 376zm0 8740c39150 0 70887 31737 70887 70888 0 39150-31737 70887-70887 70887-39151 0-70888-31737-70888-70887 0-39151 31737-70888 70888-70888z" class="fil0"/>
	<path d="M105783 48666c9254 0 16756 7752 16756 17315 0 4363-1364 7158-3942 10203-1214 1434-4844 2184-7646 3258-3450 1324-6410 3975-8696 3469-7560-1674-13228-8618-13228-16930 0-9563 7501-17315 16756-17315zm-50754-812c9514 0 17227 7970 17227 17801 0 4486-1402 7359-4052 10489-1249 1475-4980 2246-7861 3351-3548 1360-6591 4086-8940 3565-7773-1720-13600-8859-13600-17405 0-9831 7712-17801 17226-17801zm44157 36702c-11531 61-15555 3072-20455 7816-4916-4707-8971-7708-20504-7708-11551 0-22335 11869-30890 27953 10930 7565 19304 16114 30855 16114 11506 0 15800-3023 20710-7711 4959 4693 9019 7663 20552 7602 11568-61 19880-8654 30770-16277-8641-16039-19470-27850-31038-27789z" class="fil0"/>
	<path stroke="#a7aaad" stroke-width="200" d="m63653 72536 15215-15432 15432 15215-1111 14642-14284-24619-16047 25662z" class="fil0"/>
	<path d="M114419 62687c3723-4036 19200-20004 24711-11654 1286 1949 1097 2739-126 4272-765-723-1411-1526-2377-1946-3379-1469-12777 13052-14526 15730-1767 2121-4920 2408-7042 640-2121-1768-2408-4921-640-7042z" class="fil1"/>
	<path d="M118260 65888c12-14 14224-19495 19619-13692 964 1038 1125 1531 1125 3109" class="fil2"/>
	<path d="M35701 63454c-2732-5339-6554-12793-12806-14518-143 166-360 419-731 865-864-948-2545-2889-617-3850 8418-4198 18053 6443 22639 12211 1461 2343 747 5427-1596 6888-2343 1462-5427 747-6889-1596z" class="fil1"/>
	<path d="M39944 60808c-3478-5576-10634-14938-17708-13474-194 559-72 1812-72 2467" class="fil2"/>
</svg>
