<svg xmlns="http://www.w3.org/2000/svg" width="756" height="756" fill="none">
  <path fill="#2B2A29" fill-rule="evenodd" stroke="#2B2A29" stroke-width=".756" d="M167.13 597.967c19.748-4.751 47.74-9.226 48.994-12.99.548-1.64 2.778-8.53.507-10.938-2.937-3.114-10.024-9.154-14.253-11.407-7.498-3.998-36.748 3.085-39.001 4.336-2.249 1.247-44.122 24.748-47.123 28.248-4.127 4.815-2.547 12.378 8.999 12.487 10.383.099 29.926-6.863 41.877-9.736Z" clip-rule="evenodd"/>
  <path fill="#5B5B5B" fill-rule="evenodd" d="m131.1 606.096-22.794-19.737-13.255-26.619s-93.43-55.238-52.048-54.648c17.715.253-49.307-111.194-11.21-100.932 7.722 2.078 23.815 32.889 33.385 45.49 3.1 4.074 20.171 2.869 24.91 6.716 11.517 9.355 11.528 24.261 25.267 33.597 44.946 30.534 94.14 58.488 97.523 67.63 12.431 33.597 3.247 27.383 3.247 27.383.113-.125 3.526-10.314-5.004-13.497-6.943-2.596-15.568-8.231-26.608-6.202-1.557.284-15.742 13.803-21.702 14.514-4.706.559-7.624 2.245-12.227 4.063-12.669 5.004-21.135 11.365-23.036 11.459-17.33.858 3.477 10.647 3.552 10.783Z" clip-rule="evenodd"/>
  <path fill="#2B2A29" fill-rule="evenodd" d="M120.548 574.398c39.772-19.461 48.34-23.954 57.271-16.962 8.931 6.992 12.004 3.995-4.429 10.242-16.43 6.244-8.958-7.876-26.011 3.757-17.057 11.633-44.602 42.157-35.717 22.56 8.886-19.597-5.151-12.729-13.636-5.586-8.485 7.143-6.165-19.71 10.348-23.305 16.517-3.598 52.09-24.366 56.402-19.525 4.309 4.842-12.51 1.762-22.568 12.488-10.057 10.726-21.66 16.331-21.66 16.331Z" clip-rule="evenodd"/>
  <path fill="#8E6B4F" fill-rule="evenodd" d="M257.779 126.433c1.908-.094 6.304 8.633 9.343 15.126 5.208 11.134-.953 9.672-2.196 3.197 0 0-6.24 3.44-9.472-.567-3.231-4.002-11.161-19.498-11.951-22.151-.79-2.657-3.689-7.397-3.689-7.397s-1.224 3.662-7.475 2.876c-6.252-.786-11.585-.574-15.897-2.056-4.316-1.481 2.88 2.65 2.88 2.65.257 5.132-4.003 12.245-6.781 16.1-3.798 5.269-9.634 9.631-14.381 16.063l1.172 25.709s2.623 1.497 4.157 5.257c1.535 3.765 1.89 6.97.696 7.053-4.263.291-11.24-1.69-16.192-13.565-2.774-6.66-4.425-11.399-5.707-14.135-1.281-2.741-1.644-1.331-1.644-1.331l-1.942-1.009c-23.082 20.459-22.428 36.355-47.83 27.077-4.483 9.426-43.507 48.498-56.894 56.197-3.828 2.204-2.77-18.342-9.588-15.533l17.147-13.195 20.172-34.352 39.477-61.689 38.355 9.437 17.23-19.279 8.073-12.125 33.102 6.051 20.677 9.623-.842 15.968Z" clip-rule="evenodd"/>
  <path fill="#ECAE7B" fill-rule="evenodd" stroke="#5A412B" stroke-width=".756" d="M264.714 105.105c-2.559-8.372-3.409-13.089-7.343-13.762-3.935-.669-34.712-6.478-39.784-9.585-5.076-3.106-6.784-6.757-12.185-2.823-5.401 3.93-11.199 18.626-14.6 23.925-3.406 5.302-4.94 13.625-8.943 16.679-4.006 3.05-25.666-7.457-32.039-12.371-6.372-4.917-12.113-6.546-14.759.374-2.642 6.924-7.166 16.608-14.131 27.833-6.966 11.229-15.561 27.685-20.708 34.087-5.152 6.403-12.93 8.157-16.222 23.369-3.292 15.213-1.863 8.481-1.863 8.481.408-.192 11.183.96 24.23-9.573 23.225-18.75 8.474-4.04 11.705-5.575 17.704-8.413 8.678-29.439 14.015-40.482 6.206-12.851 2.759-21.188 8.311-19.96 5.552 1.228 2.88 7.117 15.602 10.129 12.722 3.009 17.416 5.303 24.007 11.652 6.596 6.354 1.422 5.938 8.327 16.823 6.901 10.885 11.845 15.647 11.845 15.647 6.58 3.118 16.191.688 16.86-4.592.866-6.852-7.551-23.875-7.551-23.875s-7.533-14.166-9.94-17.378c-2.408-3.209-8.021-6.501-8.021-6.501s6.928-6.475 9.064-12.548c2.135-6.078 6.996-10.197 6.996-10.197s-1.932-6.664-2.449-7.65c-.518-.987-.295-2.442-.295-2.442s3.779 6.747 4.153 7.298c6.713 9.99 22.398 5.178 23.331 2.23.753-2.381 5.617-3.477 5.617-3.477s2.891 6.059 3.178 7.521c.288 1.459 11.781 21.669 13.013 24.307 3.939 8.417 18.958 15.424 12.987 8.889-6.346-6.939 4.584.93 5.476-.438 1.44-2.219 2.551-10.594.824-16.392-3.333-11.195-5.404-8.814-8.708-19.623Z" clip-rule="evenodd"/>
  <path fill="#5A412B" fill-rule="evenodd" d="M178.204 154.3c-3.05-1.561-11.89-3.406-13.655-5.246-1.769-1.845-6.127-.276-10.628-5.057-4.498-4.781-8.096-9.082-9.188-11.414-1.089-2.332-3.36-6.943-2.366-3.368.994 3.579 5.397 11.048 6.693 12.858 1.301 1.807 4.472 3.749 5.976 5.031 1.508 1.285 14.925 5.298 16.645 6.315 1.72 1.017 6.523.881 6.523.881ZM148.543 150.148c-3.175.953-8.511 2.612-11.705 1.342-3.198-1.27-5.507-1.126-5.507-1.126s.276 1.799 1.758 2.309c1.485.507 7.536 2.079 10.363 1.346 2.823-.734 5.091-3.871 5.091-3.871ZM151.43 156.078c-3.284 9.43-.775 8.504-4.679 13.463-3.904 4.959-5.246 7.646-5.246 7.646s7.275-5.25 7.967-7.393c.696-2.147 2.763-5.945 2.574-7.797-.189-1.856-.616-5.919-.616-5.919ZM213.573 114.182c-1.727-1.274-6.981-6.697-6.868-7.427.11-.725-1.557-.661-.502 1.108 1.054 1.765 3.991 4.902 4.448 5.272.454.37 2.922 1.047 2.922 1.047Z" clip-rule="evenodd"/>
  <path fill="#2B2A29" fill-rule="evenodd" d="M264.102 142.904c7.529 16.789 11.936 30.652 14.166 29.919 1.61-.533 1.187-11.823-2.245-27.693-7.794-36.045-27.553-37.085-11.921-2.226ZM216.2 187.891c-6.093-36.087-28.555-38.336-15.213-3.231 5.957 15.673 14.419 31.132 16.857 30.935 1.799-.147 1.122-11.316-1.644-27.704Z" clip-rule="evenodd"/>
  <path fill="#ECAE7B" fill-rule="evenodd" stroke="#5A412B" stroke-width=".756" d="M229.387 366.644c-.876-3.945-3.639-14.343-4.554-17.091-5.076-15.212-7.43-22.892-4.203-31.774 3.814-10.492 2.646-6.917 4.551-11.683 1.349-3.371 15.719-25.224 15.443-28.777-.102-1.327-11.611 18.886-13.266 22.439-.121.261-1.168-5.563-1.221-6.062-1.909-17.163 1.905-20.98 4.766-33.377 2.861-12.397 7.631-21.937 2.861-33.381-4.766-11.444-7.627-13.349-.952-22.889 6.674-9.536 17.351 4.003 19.256 12.586.994 4.464-.253 5.397-9.554 52.46 2.256-.635 11.784-48.529 16.815-58.59 12.673-25.346 47.868-69.09 70.756-84.658 23.845-16.21 31.533-12.193 46.795-12.193 15.258 0 41.382 13.599 59.501 30.766 18.119 17.166 35.803 42.466 42.482 49.141 6.674 6.675 10.488 10.488 11.444 24.794.488 7.351.949 12.691 1.338 16.138 2.842 25.142 13.765 62.23 12.945 55.967-.869-6.61-9.827-35.508-11.785-56.035-.499-5.253 2.767-13.44 7.038-18.931 6.674-8.58 4.77-14.302 14.305-12.397 9.536 1.908 8.584 4.769 9.536 15.258.953 10.492.953 19.075-2.861 30.519-3.814 11.445.956 14.306 1.909 34.334.797 16.739-4.744 32.167-3.043 35.588 1.875 3.768 3.254 3.144 2.086 13.047-1.904 16.214-7.627 25.749-12.396 32.428-4.766 6.674-148.774 36.238-148.774 36.238l-131.218-33.865Z" clip-rule="evenodd"/>
  <path fill="#8E6B4F" fill-rule="evenodd" d="M395.388 118.109s19.555 14.759 25.013 32.992c5.461 18.232-1.199 16.702-3.553 16.909-1.361.121 5.866 2.057 6.947 7.673.491 2.551-3.391 4.717-5.791 4.717-2.199 0 9.948 2.702 9.449 7.2-.499 4.501-6.992 7.26-8.508 7.468-1.515.204 10.356.835 10.557 9.233.2 8.402-6.305 15.78-14.151 20.183-2.698 1.512 5.189 2.083 11.32 3.269 6.361 1.229 11.792 6.025 7.264 5.314-5.133-.805-8.848.685-9.332 1.637-1.001 1.977 6.199 4.199 6.199 4.199L404.009 316.3l1.198 23.203-2.306 8.398c9.162-5.329 18.588-4.048 25.025-5.787 19.865-5.374 34.053-9.807 52.093-11.833-7.865 6.179-19.729 11.357-27.594 17.537 14.456-5.998 29.291-9.498 48.498-10.5-9.206 3.043-16.165 5.957-22.624 10.624 13.383-.801 27.583-3.31 41.344-4.894a54.273 54.273 0 0 0 1.357-6.002c2.219-13.55.59-14.404-1.311-18.251-1.901-3.852 3.624-15.632 3.042-35.588-.381-13.062-3.862-21.2-3.231-28.608.529-6.247 3.742-11.357 4.036-16.796.639-11.886-.654-20.473-.31-25.062.677-9.003-9.509-11.966-15.14-9.415-2.336 1.055-2.627 3.103-4.49 6.259-2.295 3.889-3.958 5.609-5.704 8.712-1.746 3.099-5.163 10.613-5.083 13.784.034 1.436 1.557 13.644 4.191 26.615 3.183 15.682 7.586 32.467 7.586 32.467l-4.165-13.361-7.132-28.955s-3.198-27.447-3.61-36.299c-.415-8.851-5.559-12.238-18.16-27.613-26.763-32.655-35.724-48.17-76.131-66.826Zm115.033 244.857c2.62-3.655 5.658-9.445 7.892-15.753-10.435 4.233-23.777 10.046-27.889 13.606 4.154-.48 11.505.473 19.997 2.147Z" clip-rule="evenodd"/>
  <path fill="#937158" fill-rule="evenodd" d="M329.28 255.938c1.988 7.601 6.081 7.82 9.463 7.337 4.131-.594 7.93-3.202 8.516-7.873.098-.813 1.394 2.506 4.361 4.501 2.665 1.792 4.914 1.04 4.887-3.624-.056-9.865 2.124-20.002 2.124-20.002s-.589 11.214.726 18.452c2.442 13.47 12.688 8.659 17.276 10.549-4.263-6.667-4.501-10.999-4.501-10.999s2.551 3.7 8.999 5.998 9.502 5.001 9.502 5.001 10.673 36.404 8.039 38.014c-.325.2 8.696 2.82 9.055 6.032.983 8.788 20.194 26.54 9.736 30.86-22.125 9.147-54.077 35.932-57.781 36.839-.355.083 17.155-16.736 26.993-31.396 3.13-4.672 13.112-5.261 14.484-11.539 2.551-11.653-.393-18.868-11.615-18.123-6.179.412-14.211 3.088-17.038 3.405-1.179.133 16.498-9.086 14.85-10.174-1.92-1.266-7.782-3.867-8.701-4.645-3.934-3.341-.722-16.785-4.804-20.077-7.808-6.293-12.888-9.366-18.64-8.897-9.676.794-23.577 12.703-29.08 18.202-.741.741-14.222-2.366-16.297 5.273-.507 1.874-3.235 4.017-5.484 6.251-5.284 5.238-5.647 10.669-7.85 14.933-1.062 2.044-6.781 17.34-2.306 23.24 3.33 4.396 15.273 5.299 13.879 5.363-6.395.295-13.781.613-20.776-.688-10.062-1.871-20.402-3.817-19.873-3.979 8.458-2.608 15.382-3.704 24.007-16.827 6.418-9.774 7.2-29.318 7.2-29.318l21.196-8.84 4.807-6.41 4.646-26.839Z" clip-rule="evenodd"/>
  <path fill="#DEA26C" fill-rule="evenodd" d="M429.547 325.409c3.251-6.999 9.498-9.751 16.248-12.253 11.252-4.165 42.69-13.999 43.004 6.251.136 8.946-48.616 17.503-51.753 17.001-6.248-1.002-8.5-5.001-7.998-8.002l.499-2.997Z" clip-rule="evenodd"/>
  <path fill="#5A412B" fill-rule="evenodd" d="M329.145 318.406s.498-1.5 3.998-4.498c3.5-3.001 4.158-2.744 7.503-5 3.345-2.26 6.999-.253 8.749.748 1.75 1.002-.064 1.531-1.376.843-1.311-.688-2.279-.873-3.998-.688-1.72.189-1.875.907-4.127 1.75-2.249.847-2.843 1.316-4.562 2.533-1.72 1.22-2.907 2.127-3.844 3.001-.937.876-2.343 1.311-2.343 1.311ZM280.917 213.385s3.5-4.501 8.999-6.501c5.499-1.999 11.501-4.501 20.5-1.001 8.999 3.5 20.995 11.501 12 8.001-8.999-3.5-11.437-8.375-21.373-7.189-9.936 1.187-12.064 2.378-14.937 4.313-2.876 1.939-5.189 2.377-5.189 2.377ZM399.228 204.696c3.5-4.248 9.627-7.373 13.002-9.248 3.375-1.875 10.379-2.865 14.63-2.491 6.943.612 9.895-.393 14.37 6.115 0 0-13.372-6.069-27.624-1.375-3.957 1.304-21.109 13.663-21.752 13.126 0 0 3.875-1.875 7.374-6.127ZM398.227 190.867c3.125-3.999 6.75-5.624 8.999-7.374 2.252-1.75 2.626-2.627 7.253-3.375 4.622-.749 14.747-1.75 18.122 3.499 3.375 5.25 0-2.124-7.872-2.248-7.877-.125-10.001-.752-12.378.623-2.374 1.376-7.733 4.951-8.123 4.377-.389-.575-6.001 4.498-6.001 4.498ZM408.227 225.745s0-.125 9.123-1.75c9.128-1.625 13.251-4.003 16.003-.374 2.748 3.624 2.498 6.247 2.498 6.247s-2.876-4.622-7.623-4.751c-4.751-.124-20.001.628-20.001.628ZM460.978 268.245s-9.252-.877 2.748-.877 20.126 2.124 20.126 2.124-6.376-.873-15.625.503c-9.248 1.372-6.002.873-.249 2.997 5.749 2.128 9.623 4.002 16.248 7.378 6.626 3.375 4.656 5.041-11.021 1.523-8.462-1.898-11.478-.276-12.541 4.475l-1.311 5.877s.624-1.002 11.373-1.875c10.752-.877 10.877-1.001 10.877-1.001s1.625-.25-12.752 3.125c-14.374 3.375-17.873 0-17.873 0l8.624-26.502 4.124 1.376-2.748.877ZM253.225 270.245s-.767-.564-4.766.185c-3.999.748-5.858 3.439-5.858 3.439s7.373-2.498 8.874-1.5c1.5 1.001.374 1.375.374 1.375s-3.522.673-7.374 2.125c-3.851 1.451-1.75 2.127-1.75 2.127s5.375-2.377 8.875-1.749c3.5.623 3.125 4.497 3.125 4.497l-2.313 2.687s1.939-1.122-3.809.439c-5.753 1.565-6.815 3.314-6.815 3.314s7.124-1.999 11.376-1.375c4.249.623 4.135 6.111 2.124 6.999-2.01.889.658 1.346-2.842 1.97-3.5.623-9.566 2.876-12.313 5.627-2.752 2.748 1.5.624 3.624-.502 7.635-4.041 4.94-2.937 15.874-5.001 0 0 2.502-7.623 2.124-9.248-.374-1.625-.998-16.502-.998-16.502l-7.532 1.093ZM281.05 198.97c.004.037 4.694-4.2 9.672-7.491 1.111-.737 3.488-1.55 4.577-2.132 5.975-3.201 7.767-1.811 12.767-.31 5 1.497 5.733 5.934 5.733 5.934s-1.247-4.725-8.999-4.751c-3.465-.011-4.429-.805-7.328.011-6.516 1.833-13.708 6.49-16.422 8.739ZM402.925 171.47c5.801-3.05 10.548-4.921 13.976-3.602 3.432 1.323 9.336 2.037 10.712 7.351-3.262-4.592-11.966-6.803-13.686-6.391l-11.002 2.642ZM509.855 299.358c0-3.999-2.797-8.799-1.799-15.401 1.002-6.599 2.2-9.6-.2-14.2-2.4-4.6-4.8-5.998-3.598-12.998 1.198-6.999 5.899-25.701 6.999-28.501 1.1-2.801 3.001-6.8 3.201-10.401.197-3.599 1.599-5.001 2.797-3.599 1.202 1.399.401 3.799-.797 7-1.202 3.201-5.601 23.8-7.601 27.402-1.999 3.598-3.201 9.399-1.799 13.398 1.399 3.999 5 6.599 4.6 12.601-.401 5.998-1.603 8.398-1.603 11.599 0 3.202-.699 6.101.204 8.3.9 2.2-.404 4.8-.404 4.8Z" clip-rule="evenodd"/>
  <path fill="#2B2A29" fill-rule="evenodd" d="M424.661 234.561c23.285 0 42.164 19.506 42.164 43.57 0 10.979-3.432 18.013-9.918 25.674-3.057 3.61-12.189 5.496-19.241 8.202-8.682 3.33-16.131 10-21.884 8.727-19.022-4.211-33.286-21.687-33.286-42.603 0-24.064 18.879-43.57 42.165-43.57Z" clip-rule="evenodd"/>
  <path fill="url(#a)" fill-rule="evenodd" d="M432.696 241.591c13.205 2.502 23.814 15.511 21.229 29.155-2.581 13.644-9.158-6.713-27.859-12.839-18.705-6.127-35.845 4.762-28.671-6.667 7.177-11.426 22.099-12.148 35.301-9.649Z" clip-rule="evenodd"/>
  <path fill="#2B2A29" fill-rule="evenodd" d="M291.659 232.062c21.437 0 39.137 16.528 41.812 37.924.235 1.848.22 8.561-.022 10.458-1.501 11.845-4.517 10.235-7.431 16.154-1.988 4.04-1.319 6.474-4.376 9.668-2.457 2.566-3.5-3.326-10.322-4.513-10.95 1.603-10.579 13.263-13.901 16.411-1.565 1.485-3.534 1.036-5.76 1.036-23.286 0-42.165-19.507-42.165-43.567 0-24.064 18.879-43.571 42.165-43.571Z" clip-rule="evenodd"/>
  <path fill="url(#b)" fill-rule="evenodd" d="M306.602 241.331c11.037 3.356 18.883 15.439 15.413 26.842-3.466 11.399-7.188-6.58-22.579-13.539-15.39-6.958-31.022.745-23.845-8.341 7.181-9.082 19.979-8.319 31.011-4.962Z" clip-rule="evenodd"/>
  <path fill="#393222" fill-rule="evenodd" d="M335.421 413.82c8.005-10.114-2.744-19.975 5.258-30.089 1.334-1.243 15.964-1.209 22.752-7.46 6.792-6.252 28.377-21.06 37.992-27.451 9.615-6.395 19.718-4.872 26.502-6.705 19.865-5.375 34.054-9.808 52.093-11.834-7.865 6.18-19.729 11.358-27.594 17.537 14.457-5.998 29.291-9.498 48.499-10.499-9.207 3.042-16.165 5.956-22.624 10.624 17.374-1.039 36.124-4.959 53.499-5.998 0 0-34.307 12.756-41.375 18.875 13.059-1.508 57.752 11.123 70.001 15.999-18.21-.582-30.168-1.168-46.503.498 21.502 3.251 50.003 16.502 65.253 26.503-20.753-4.419-34.752-.586-44.749-.25 21.747 6.414 39.998 19.083 54.999 32.247-15.67-3.999-31.336-7.997-47.002-12 24.378 15.991 36.235 33.109 44.999 55.003-14.831-11.584-34.915-24.669-50.747-27.25 18.916 18.248 27.084 35.747 33.747 62.249-14.332-14.332-28.664-28.668-43-43 0 0 21.502 21.498 28.003 38.498-11.048-11.191-43-36-43-36 10.583 14.586 16.04 37.168 15.999 62.128-6.875-16.418-12.941-26.324-20.5-34.624 3.333 17 9.165 39.371 12.499 56.372-7-12.333-14.998-28.041-22.001-40.373 6.002 15.666 10.125 28.206 18.002 43.997-12.662-10.522-22.001-17-32.999-26.997 0 0 14.672 15.451 21.622 23.373-9.86-5.125-30.875-16.124-55.872-44.126 7.498 20.25 17.748 38.003 27.749 58-20.032-13.746-36.31-29.99-49.591-57.237 2.362 21.581 13.103 41.961 21.09 64.989-17.915-16.834-31.832-38.918-43.998-58 7.665 16.335 16.581 30.168 26.748 46.499-16.498-13.75-29.749-29.499-42.75-45.498 4.002 14.997 3.167 23.83 10.665 42.081-11.089-18.833-17.922-35.913-25.663-56.084-2.086 15.67 1.331 31.336 2 47.002-7.336-16.335-14.918-33.169-20.001-54.251-7.582 14.585-10.999 41.688-14.249 54.75-3.837-10.915-6.168-26.332-4.751-38.498-4.959 11.372-15.731 24.937-27.062 35.063 3.916-5.375 9.143-16.252 12.25-22.375-8.844 11.232-15.523 24.393-28.687 34.56 6.248-10.167 9.457-20.028 12.499-29.25-11.667 9.668-26.082 21.834-37.75 31.502 1.221-7.581 6.441-19.91 14.158-30.739-10.718 8.913-22.189 23.324-29.408 32.236.665-15.916 7.332-31.332 10.998-46.998 24-35.668 48-71.335 72-106.999Z" clip-rule="evenodd"/>
  <path fill="#68583F" fill-rule="evenodd" d="M308.073 348.84c-23.701 2.109-50.74-7.434-73.44-14.366 15.968 9.562 21.713 13.557 25.833 17.397-16.913-5.34-38.385-15.919-53.091-17.711 17.114 9.362 36.529 24.892 36.529 24.892s-12.782 1.024-32.806 2.933c-20.028 1.909-37.584 10.738-37.584 10.738l45.944 1.084c-13.667 4.449-26.264 4.683-42.932 13.384l42.917 1.905c-22.341 3.416-41.431 8.333-61.02 19.997 21.618-1.909 39.11-10.314 65.351-11.221-38.033 13.065-48.393 20.413-77.593 37.621 21.883-4.35 43.767-8.7 65.65-13.047-26.665 10.167-46.828 20.837-61.992 41.008 20.818-7.661 30.83-13.081 52.989-21.12-16.229 17.9-37.825 32.247-44.496 66.002 16.497-16.834 20.908-16.101 38.906-28.932-14.165 21.331-17.242 29.597-19.408 48.929 9.498-10.167 16.438-23.395 25.939-33.562-5.835 15.5-10.938 31.4-13.772 47.902 8.186-14.2 12.835-27.175 22.084-40.339-5.167 15.417-10.334 25.081-14.249 47.248 9.165-8.334 24.582-22.167 39.25-26.748-7.835 11.497-10.919 29.25-11.252 44.75 7.835-17.084 13.418-28.917 26.752-40.252-7.166 13.334-11.834 24.918-13.501 40.751 14.669-23.917 32.833-44.334 54.002-58.5-5.506 8.512-8.417 16.082-18.999 31.499 22-23.414 31.249-34.583 53.249-58.001-4.493 10.976-5.571 12.442-8.821 27.402 13.64-19.597 16.093-24.193 34.072-47.649.719 4.392 2.487 12.854 8.108 35.426.669-19.336 1.349-27.217 2.143-32.803 2.997 10.583 8.371 23.044 14.373 32.376-1.667-10.001.166-12.624-1.251-24.624 7 8.999 11.626 15.874 18.626 24.873 1.043-8.833-1.165-13.164-2.499-23.497 9.045 12.805 25.951 26.808 41.001 43.249-5.001-15.666-4.861-28.513-15.36-45.177 8.999 10.001 18.357 19.676 27.36 29.677-4.891-13.168-10.625-21.706-17.636-33.619 2.533 1.826 9.196 7.684 15.22 11.35-1.625-4.316-2.57-8.606-4.089-11.86 7.982 3.439 20.228 13.909 27.318 19.03-4.335-15.251-12.529-30.467-22.862-43.967 17.998 6.999 32.799 16.565 46.798 28.066-4.085-10.752-7.124-18.508-19.207-27.757 12 5.666 21.207 9.09 33.207 14.756-7-9.332-16.336-15.5-24.753-24.25 11.252 3.334 27.754 10.666 37.754 15.999-10.155-14.302-20.058-29.102-37.209-38.404 8.987-.283 17.866 5.688 25.957 8.905-4.75-8.251-13.5-16.003-22.25-20.251 5.167-1.001 9.128-.125 18.252-.249-6.085-6.751-23.668-14.752-36.499-15.75 4.664-2.003 20.708-5.627 28.622-4.626-7.551-7.495-28.04-3.919-36.374-3.375l-14.51 1.965c2.945-2.169 4.018-2.335 15.466-5.128-11.988.015-49.973 2.139-61.357 6.429 1.236 2.925 3.701 9.365 3.81 12.434-2.921-2.978-9.271-9.876-11.399-11.607.937 3.077 3.043 6.709 4.173 13.161-5.254-4.691-12.635-8.557-14.57-10.341.903 2.729 2.513 7.839 3.216 17.159-6.501-8.84-11.664-17.779-13.013-17.669-6.251.499-10.053-.635-19.502-1.966-9.453-1.33-12.949-5.673-23.154-11.811l-9.758-11.592-8.663-8.526Z" clip-rule="evenodd"/>
  <path fill="#3C3525" fill-rule="evenodd" d="M256.524 410.563c-2.96 3.745 14.373-12.257 26.751-15.5-5.847.975-17.843 14.082-21.067 19.994 6.716-6.69 15.855-12.212 17.601-11.936-2.445 3.938-8.534 16.943-12.536 22.443-5.001 6.878 21.131-24.548 27.564-29.19-3.103.023-6.792 1.085-10.126 2.249 1.917-1.999 11.335-7 13.251-8.999-2.418.503-10.458 2.752-12.876 3.25 4.369-2.623 7.218-2.853 10.125-3.749-17.443-.038-26.805 6.391-38.687 21.438ZM415.215 404.84s10.375 21.502 19.249 30.002c8.874 8.5 6.127 5 6.127 5s-1.626-4.127-6.751-12.249c-5.125-8.126-6.999-11.252-11.75-16.252-4.751-5.001-6.875-6.501-6.875-6.501ZM426.047 411.209s6.47 11.248 11.614 15.511c5.148 4.26 3.519 2.468 3.519 2.468s-1.043-2.173-4.142-6.376c-3.096-4.203-4.237-5.824-7.008-8.349-2.77-2.525-3.983-3.254-3.983-3.254Z" clip-rule="evenodd"/>
  <path fill="#8E6B4F" fill-rule="evenodd" d="M570.917 560.786c-3.239 1.191-3.443 11.127.714 16.668 6.297 8.387 16.494 16.6 21.994 20.138 5.503 3.533 15.065 15.522 21.38 19.955a85.733 85.733 0 0 0 3.118 2.068l10.292-8.863-12.446-14.037-39.764-30.679c-10.492-1.024-1.501-6.64-5.288-5.25Zm9.332 91.454c-13.754-11.955-29.59-26.827-29.59-26.827s-8.912-7.658-14.646-10.001c-5.73-2.343-11.274-12.068-11.274-12.068s-4.483 5.805-1.115 17.832c3.367 12.03 7.056 15.469 15.904 20.889 9.91 6.066 18.75 9.914 30.459 17.133.439.268.866.529 1.285.775l8.977-7.733Z" clip-rule="evenodd"/>
  <path fill="#ECAE7B" fill-rule="evenodd" stroke="#5A412B" stroke-width=".756" d="M575.823 553.65c22.42 9.332 38.986 8.145 45.415 12.907 11.474 8.501 12.586 19.234 23.807 29.87l-18.886 16.267c-4.264-5.257-8.671-10.182-11.656-13.054-7.718-7.427-21.275-14.926-29.995-20.38-8.719-5.453-10.673-6.02-13.391-13.719-2.721-7.699 1.369-8.701 4.706-11.891ZM539.343 600.842s12.653 5.113 14.936 6.482c8.701 5.208 30.543 18.179 39.326 22.42 3.285 1.587 5.651 3.08 7.461 4.566l-22.518 19.396c-5.488-4.826-11.226-9.71-15.591-12.563-9.664-6.316-23.973-9.079-25.648-17.068-1.028-4.918 2.869-10.273 7.079-14.193 2.631-2.449-5.045-9.04-5.045-9.04Z" clip-rule="evenodd"/>
  <path fill="#5A412B" fill-rule="evenodd" d="M628.785 583.679c-.022 6.338-2.264 10.296-2.264 10.296-2.577-2.113 1.66-11.974-1.504-21.997-1.432-4.536 3.795 5.363 3.768 11.701Z" clip-rule="evenodd"/>
  <path fill="#2B2A29" fill-rule="evenodd" d="M574.485 550.797c18.531 8.172 12.865 25.289-9.592 11.853-11.43-6.841-30.067-21.906-25.414-21.154 4.649.756 27.719 6.089 35.006 9.301ZM528.318 592.978c7.888 3.48 18.198 9.101 21.437 13.92 5.223 7.766-.593 14.127-9.641 11.111-15.946-5.314-43.563-39.144-32.542-34.541 11.017 4.604 18.187 8.383 20.746 9.51Z" clip-rule="evenodd"/>
  <path fill="#5A412B" fill-rule="evenodd" d="M569.053 632.385c1.538-.155 3.13-2.26 4.26-3.983 2.078-3.164 1.878-5.439 1.878-5.439-.295 1.901-2.831 3.658-3.541 4.944-2.956 5.348-9.782 6.017-9.525 7.32.098.503 4.32-2.577 6.928-2.842Z" clip-rule="evenodd"/>
  <path fill="#5B5B5B" fill-rule="evenodd" stroke="#2B2A29" stroke-width=".756" d="M74.165 232.701s43.843 23.539 34.413 33.128c-9.434 9.592-73.206 24.661-65.023 26.736 8.187 2.075 21.078-55.585 21.078-55.585l9.532-4.279Z" clip-rule="evenodd"/>
  <path fill="#2B2A29" fill-rule="evenodd" stroke="#2B2A29" stroke-width=".756" d="M120.287 198.895c-3.072 64.834-3.299 67.415-27.3 72.083-24 4.664-25.333-10.163-27.4-18.762-2.072-8.602-.953-15.235-.953-15.235l9.532-4.279c19.869-8.923 34.269-21.002 46.121-33.807ZM534.89 172.528c-6.543-8.481-15.791-18.644-21.253-20.36-.997 5.511 9.956 28.331 9.956 28.331l11.297-7.971Z" clip-rule="evenodd"/>
  <path fill="#8E6B4F" fill-rule="evenodd" d="M712.036 372.507c3.159.34 4.872 9.456 3.19 18.368-1.678 8.908 3.469 34.828.287 33.071-3.186-1.758-31.748-17.318-35.358-23.713-3.609-6.395-3.617-8.689-11.111-12.177-7.499-3.493-13.644.616-19.888-2.102-6.244-2.717-11.717-6.705-16.664-13.546-4.944-6.841-9.15-17.223-13.077-23.746-3.927-6.52 2.116-1.977-8.565-7.223-10.677-5.246-13.538-8.032-14.033-11.206-.495-3.179 6.187-25.614 6.187-25.614l-2.99-20.198-5.934 3.42s-2.895 27.028-2.49 31.684c.404 4.66-2.162 6.871-7.106.03-4.947-6.841-12.249-28.766-12.098-34.004.155-5.238-3.681-13.24-4.891-18.905-1.205-5.666-9.294-27.462-9.294-27.462s-6.247-11.025-5.166-14.461c1.077-3.435-4.377-6.285-10.745-9.796-6.365-3.515-20.179-23.15-21.634-30.403-1.799-8.969.446-26.01 12.79-13.916 10.439 10.235 36.083 31.363 36.083 31.363l8.787 7.105s7.185-19.695 15.167-13.599c7.983 6.097 12.371 6.214 12.371 6.214l34.216 18.312 20.122 10.858 1.689 16.01 17.965 26.034 10.14 15.273-10.224 51.526 16.819 24.918 15.455 7.885Z" clip-rule="evenodd"/>
  <path fill="#ECAE7B" fill-rule="evenodd" stroke="#5A412B" stroke-width=".756" d="M685.625 371.562c-22.005-8.432-25.07-17.7-19.82-29.643 5.25-11.939 19.427-30.886 14.853-35.346-4.577-4.46 3.05-23.958 3.05-23.958s1.361.427-8.129-.291c-9.487-.719-13.04 3.45-18.358-5.772-5.317-9.226-3.991-11.07-16.32-5.132-12.325 5.937-18.788-4.4-19.373 2.211-.586 6.614-3.413 30.417-13.369 32.417-17.945 3.605 2.427-11.883 4.509-20.289 2.087-8.406 6.679-14.698 6.622-22.836-.057-8.133 1.172-9.071-3.496-12.049-4.668-2.974-8.084-5.182-8.084-5.182s24.234-5.782 29.223-7.99c4.993-2.207 20.254-3.824 16.932-7.509-3.322-3.689-7.124-1.108-10.771-3.765-3.648-2.657-5.409.563-12.609 2.075-7.2 1.512-13.625 1.754-18.988-2.574-5.363-4.331-7.355-1.557-10.878 4.883-3.522 6.444-7.472 22.568-12.831 26.548-5.36 3.976-9.914 9.709-12.48 11.176-6.236 3.568-10.696-1.841-10.9-2.631-.741-2.906 10.968-8.878 15.05-15.318 5.189-8.183 19.566-28.959 20.043-35.225.476-6.271.91-7.643-4.022-13.346s-5.072-7.638 3.413-6.1c8.481 1.534 39.386.68 49.659 1.27 10.277.59 8.255 9.392 12.136 12.499 3.878 3.107 8.285 11.667 12.628 15.674 4.346 4.01 8.254 9.392 12.461 11.47 4.203 2.075 6.765-.139 7.079 6.002.31 6.138-4.728 9.082-1.436 10.496 3.292 1.414 8.594 1.191 10.696 6.384 2.101 5.193 2.105 13.496-1.028 23.459-3.134 9.967-4.581 19.325-7.049 28.366-2.472 9.04-3.95 16.123-3.95 16.123s4.343 4.01 15.47 9.018c11.127 5.008 7.604 11.452 8.455 15.874.854 4.418 3.129 22.125-.87 26.528-4.002 4.407-4.093 5.889-10.537 4.993-6.444-.892-9.536-4.131-11.357-5.457-1.826-1.331-5.624-7.053-5.624-7.053Z" clip-rule="evenodd"/>
  <path fill="#2B2A29" fill-rule="evenodd" stroke="#2B2A29" stroke-width=".756" d="M543.246 292.165c6.478-4.978 11.449-12.427 15.398-17.359 21.543-26.91 8.629-46.33-6.814-13.746-12.828 27.057-8.584 31.105-8.584 31.105Z" clip-rule="evenodd"/>
  <path fill="#5A412B" fill-rule="evenodd" d="M688.501 250.712c-11.096-6.887-14.566-8.92-19.309-13.433-4.747-4.513-8.285-7.514-6.958-5.208 1.33 2.305 9.339 10.11 12.869 12.54 3.53 2.434 13.398 6.101 13.398 6.101ZM636.495 348.375c-2.426-4.161-4.513-8.216-2.876-12.23 1.636-4.018 9.218-18.622 12.627-24.722 3.413-6.1 6.335-7.068 8.032-14.842 1.697-7.771 1.742-12.666.567-16.056-1.176-3.39-2.189-5.219-2.268-2.884-.083 2.336-.072 2.903.378 4.887.45 1.981.952 5.726 1.213 5.193.261-.529-.703 1.195-.555 2.518.143 1.319-1.614.672-3.179-2.37-1.565-3.039-2.071-2.914-4.467-6.879-2.397-3.961-3.954-4.358-4.978-4.963-1.024-.604-1.478 1.138-.442 2.597 1.035 1.459 3.42 2.778 4.807 4.91 1.384 2.135 2.022 3.658 3.583 6.13 1.557 2.472 3.251 2.298 2.975 4.808-.276 2.509-13.837 25.149-15.799 30.194-1.957 5.046-4.977 11.082-5.162 14.045-.182 2.959 5.544 9.664 5.544 9.664ZM610.999 244.896s-5.496-.22-6.524 3.042c-1.024 3.266-2.528 16.838-4.906 22.318-2.377 5.484-1.976 5.704-2.589 8.531-.608 2.831.159 2.124.046 3.129-.114 1.005 1.716-2.483 2.226-4.112.514-1.633 2.823-10.156 3.243-12.386.419-2.226 1.221-9.524 1.814-11.414.593-1.889.873-6.051 2.442-6.878 1.568-.828 4.248-2.23 4.248-2.23ZM570.973 224.701s-1.217 1.512-4.093 7.688c-2.876 6.172-4.377 9.305-5.284 11.455-.907 2.155-1.292 3.791-1.292 3.791s2.43-5.038 3.84-7.143c1.409-2.101 6.557-11.339 6.765-12.593.208-1.259.064-3.198.064-3.198ZM690.089 327.66s1.595 23.161-2.487 33.77c-4.086 10.609-1.977 10.133-1.977 10.133s2.226-21.94 2.706-26.305c.484-4.369 1.758-17.598 1.758-17.598Z" clip-rule="evenodd"/>
  <path fill="#ECAE7B" fill-rule="evenodd" d="M570.973 224.701c1.674-2.374 4.667-8.697 7.169-13.943 1.928-4.036 3.893-7.404 2.756-8.012-1.61-.862-9.714-4.381-17.953-9-13.773-7.725-32.171-24.162-32.171-24.162-2.382-.748-5.564 1.652-4.071 7.593 1.493 5.945.786 15.916 8.466 20.595 7.684 4.682 16.94 9.105 22.749 13.194 5.813 4.093 4.339 3.443 8.697 8.587l4.358 5.148Z" clip-rule="evenodd"/>
  <path fill="#2B2A29" fill-rule="evenodd" stroke="#2B2A29" stroke-width=".756" d="M593.593 336.015c4.214-7.499 6.119-16.755 7.994-23.157 10.22-34.931-8.924-48.299-11.388-10.432-2.045 31.446 3.394 33.589 3.394 33.589Z" clip-rule="evenodd"/>
  <path fill="#5B5B5B" fill-rule="evenodd" stroke="#2B2A29" stroke-width=".756" d="M718.272 325.175c-1.958-2.993-3.636-5.756-8.512-5.726-9.384.057-14.025 3.202-19.086 8.705 2.649 1.054 3.485 3.314 7.468 4.834 13.576 5.178 23.577 47.089 39.64 55.563 16.063 8.473-18.331-58.647-18.331-58.647l-1.179-4.729Z" clip-rule="evenodd"/>
  <path fill="#2B2A29" fill-rule="evenodd" stroke="#2B2A29" stroke-width=".756" d="M687.064 406.618c1.365 21.781 4.407 33.902 7.219 42.047 6.346 18.372 9.993 18.573 16.022 19.737 31.483 6.089 33.49-10.16 36.223-18.762 2.736-8.598 1.255-15.235 1.255-15.235l-35.989-92.477c-.733-1.886-5.17-12.526-15.311-9.884 3.851 3.114 10.398 20.837 11.274 29.537 4.63 45.876 15.852 69.075 5.443 60.918-1.478-1.156-23.339-13.855-26.136-15.881Z" clip-rule="evenodd"/>
  <path fill="url(#c)" fill-rule="evenodd" d="M377.548 0C586.065 0 755.1 169.032 755.1 377.548c0 208.513-169.035 377.549-377.552 377.549C169.036 755.097 0 586.061 0 377.548 0 169.032 169.036 0 377.548 0Zm0 41.435c185.632 0 336.114 150.486 336.114 336.113 0 185.628-150.482 336.11-336.114 336.11-185.627 0-336.11-150.482-336.11-336.11 0-185.627 150.483-336.113 336.11-336.113Z" clip-rule="evenodd"/>
  <path fill="#2B2A29" fill-rule="evenodd" stroke="#2B2A29" stroke-width=".756" d="M447.923 721.5c11.887 1.523 26.933 4.709 31.714 9.003-4.705 4.067-32.866 6.368-32.866 6.368l1.152-15.371Z" clip-rule="evenodd"/>
  <path fill="#8E6B4F" fill-rule="evenodd" d="M181.538 592.823c-1.236-3.337-11.55-2.766-20.7 1.44-9.154 4.207-32.512 8.841-29.738 11.834 13.304 14.347 31.612 29.953 43.541 39.428 7.264 5.771 5.079 13.175 9.732 19.238 4.656 6.058 10.469 10.941 19.215 14.49 8.75 3.549 21.116 5.348 29.235 7.877 8.118 2.525 1.549-2.827 10.155 7.378 8.61 10.204 12.405 12.57 15.969 12.26 3.564-.31 25.935-13.564 25.935-13.564l22.62-2.143-2.056 7.358s-28.369 10.364-33.505 11.169c-5.137.805-6.819 4.184 1.927 7.733 8.75 3.553 34.428 5.631 40.037 4.067 5.609-1.565 15.303.468 21.751.268s32.202 2.77 32.202 2.77 13.621 3.844 17.03 1.754c3.409-2.09 7.99 3.077 13.538 9.06 5.545 5.983 31.548 8.084 39.776 7.729 10.175-.439 29.79-10.53 13.331-20.712-6.191-3.833-22.451-.741-30.63-5.121-10.208-5.469-16.014-14.96-16.014-14.96l-10.087-7.653s19.272-13.066 10.488-20.115c-8.78-7.053-10.118-11.788-10.118-11.788l-29.2-32.296-17.269-18.974-17.745 2.438-33.052-12.57-19.276-6.943-52.788 24.873-31.533-11.626-12.771-14.699Z" clip-rule="evenodd"/>
  <path fill="#ECAE7B" fill-rule="evenodd" stroke="#5A412B" stroke-width=".756" d="M189.846 621.278c15.171 21.668 26.018 22.522 37.455 13.629 11.436-8.893 27.976-29.363 34.049-25.584 6.074 3.784 25.013-9.713 25.013-9.713s-.835-1.361 2.555 8.757c3.394 10.122-.124 15.095 11.297 18.41 11.418 3.319 13.047 1.383 10.039 16.369-3.009 14.982 9.932 19.246 2.959 21.649-6.977 2.4-31.884 11.83-31.298 23.188 1.062 20.466 12.155-5.817 20.651-10.322 8.497-4.509 14.022-11.184 22.817-13.296 8.795-2.109 9.468-3.693 13.969.585 4.502 4.275 7.824 7.401 7.824 7.401s-.446-27.882.559-33.895c1.006-6.013-1.462-23.036 3.436-20.41 4.898 2.631 3.16 7.45 7.034 10.704 3.874 3.254.884 6.028 1.239 14.256.356 8.228 1.864 15.281 8.017 19.953 6.149 4.675 3.707 7.577-2.272 13.126-5.983 5.548-22.295 14.147-25.107 21.033-2.816 6.89-7.745 13.372-8.621 16.55-2.128 7.733 4.939 11.135 5.847 11.143 3.341.034 6.557-14.291 12.381-20.444 7.401-7.827 25.852-29 32.485-31.192 6.633-2.193 7.994-3.028 15.512.808 7.513 3.837 9.637 3.47 5.642-5.34-3.998-8.81-11.603-42.626-15.072-53.635-3.47-11.01-12.412-6.463-16.838-9.85-4.422-3.386-14.876-5.892-20.398-9.543-5.526-3.647-12.412-6.463-15.814-10.477-3.401-4.014-1.72-7.393-8.432-6.089-6.709 1.3-8.5 7.559-10.93 4.358-2.434-3.197-3.659-9.018-9.842-9.917-6.184-.9-15.149 1.315-25.036 7.381-9.887 6.066-19.589 10.14-28.664 15.235-9.071 5.099-16.308 8.602-16.308 8.602s-5.526-3.651-14-14.407c-8.477-10.757-14.457-5.208-19.464-4.955-5.004.257-24.741 2.51-28.392 8.031-3.651 5.526-5.224 6.021-2.48 12.787 2.741 6.765 7.087 9.259 9.026 10.888 1.935 1.626 9.162 4.226 9.162 4.226Z" clip-rule="evenodd"/>
  <path fill="#2B2A29" fill-rule="evenodd" stroke="#2B2A29" stroke-width=".756" d="M319.869 747.507c3.587-8.368 7.903-11.853 12.136-17.462 23.097-30.599 46.738-21.339 15.837 4.146-25.663 21.166-28.861 14.623-27.973 13.316Z" clip-rule="evenodd"/>
  <path fill="#5A412B" fill-rule="evenodd" d="M319.469 585.883c10.495 10.223 13.648 13.447 19.827 17.401 6.18 3.953 10.394 6.999 7.537 6.168-2.854-.828-13.486-7.446-17.084-10.636-3.598-3.19-10.28-12.933-10.28-12.933ZM228.424 668.484c5.159 1.527 10.11 2.713 13.992-.136 3.881-2.854 17.552-14.994 23.195-20.33 5.642-5.337 5.881-8.769 13.802-12.692 7.919-3.919 13.187-5.272 17.171-4.902 3.98.374 6.232.986 3.738 1.697-2.498.71-3.115.854-5.378.892-2.264.038-6.445.491-5.942.068.503-.427-1.096 1.081-2.559 1.277-1.466.193-.283 1.932 3.432 2.82 3.712.892 3.715 1.474 8.655 3.02 4.936 1.546 5.794 3.133 6.728 4.085.937.949-.82 1.909-2.68 1.176-1.859-.737-3.942-2.982-6.625-3.916-2.684-.933-4.506-1.224-7.601-2.256-3.099-1.032-3.379-2.918-6.009-1.95-2.635.967-23.324 21.751-28.23 25.232-4.902 3.477-10.582 8.368-13.731 9.362-3.144.99-11.958-3.447-11.958-3.447ZM347.13 668.564s1.754 5.915-1.485 7.903c-3.239 1.988-17.473 7.246-22.734 11.294-5.261 4.048-5.605 3.673-8.492 5.091-2.884 1.417-2.332.393-3.387.786-1.054.393 2.204-2.525 3.825-3.519 1.618-.994 10.182-5.779 12.469-6.83 2.29-1.05 9.944-3.87 11.818-5.019 1.875-1.152 6.286-2.566 6.75-4.494a1520.21 1520.21 0 0 0 1.236-5.212ZM379.963 706.672s-1.296 1.731-7.166 6.504c-5.869 4.774-8.833 7.242-10.908 8.803-2.071 1.561-3.734 2.415-3.734 2.415s4.766-3.987 6.648-6.081c1.883-2.094 10.432-10.152 11.728-10.715 1.3-.56 3.432-.926 3.432-.926ZM206.536 590.744c5.118 4.135 13.863 7.688 17.125 8.032 3.262.344 6.992 2.982 4.793 2.456-2.2-.529-11.777-1.22-13.675-2.403-1.901-1.183-6.55-3.024-7.396-5.553l-.847-2.532ZM235.994 604.709s-25.436 4.445-35.758 11.717c-10.322 7.271-10.39 4.852-10.39 4.852s23.059-8.277 27.643-9.966c4.581-1.69 18.505-6.603 18.505-6.603Z" clip-rule="evenodd"/>
  <path fill="#ECAE7B" fill-rule="evenodd" d="M379.964 706.674c2.098-2.453 8.099-7.393 13.069-11.512 3.825-3.175 6.917-6.206 7.888-5.133 1.372 1.516 7.408 9.385 14.665 17.106 12.136 12.907 34.764 13.886 34.764 13.886 1.463 2.385 1.776 9.876-5.049 9.842-11.951-.061-13.701 12.178-37.898-6.096-4.187-3.16-.744-7.397-4.017-10.069-5.968-4.876-4.158-5.046-10.916-8.41-6.754-3.363-12.506.386-12.506.386Z" clip-rule="evenodd"/>
  <path fill="#2B2A29" fill-rule="evenodd" stroke="#2B2A29" stroke-width=".756" d="M253.595 711.813c6.928-6.58 16.392-11.123 22.786-14.872 34.874-20.436 54.584-3.194 14.4 9.592-33.373 10.621-37.186 5.28-37.186 5.28Z" clip-rule="evenodd"/>
  <path fill="#5A412B" fill-rule="evenodd" d="M386.626 723.591c9.249-5.873 14.748-10.125 12.998-8.375s-8.874 8.375-11.123 8.375h-1.875Z" clip-rule="evenodd"/>
  <defs>
    <linearGradient id="a" x1="402.924" x2="447.118" y1="262.491" y2="253.281" gradientUnits="userSpaceOnUse">
      <stop stop-color="#431703"/>
      <stop offset=".149" stop-color="#381201"/>
      <stop offset=".502" stop-color="#A04412"/>
      <stop offset="1" stop-color="#FB7020"/>
    </linearGradient>
    <linearGradient id="b" x1="283.221" x2="313.418" y1="260.795" y2="250.08" gradientUnits="userSpaceOnUse">
      <stop stop-color="#391201"/>
      <stop offset=".451" stop-color="#93450E"/>
      <stop offset="1" stop-color="#FE7121"/>
    </linearGradient>
    <linearGradient id="c" x1="102.73" x2="652.369" y1="630.384" y2="124.713" gradientUnits="userSpaceOnUse">
      <stop stop-color="#4D1903"/>
      <stop offset=".012" stop-color="#300E00"/>
      <stop offset=".71" stop-color="#A64512"/>
      <stop offset="1" stop-color="#FF7221"/>
    </linearGradient>
  </defs>
</svg>
